<svg id="Слой_1" xmlns="http://www.w3.org/2000/svg" viewBox="0 0 383.8 73.3"><style>.st0{fill:#cf0a2c}</style><title>axiomus1</title><path class="st0" d="M132.4 1.8C131 .6 129.3 0 127.5 0c-1.9 0-3.7.7-5 2-1.4 1.3-2.3 3.2-2.2 5.2-.1 2 .7 4 2.2 5.3 1.4 1.3 3.2 1.9 5.1 1.9 1.9 0 3.6-.7 5-1.9 1.4-1.4 2.2-3.3 2.1-5.3.1-2.1-.8-4-2.3-5.4zM127.8 18.8h-.8c-1.8 0-3.5.8-4.7 2.2-1.3 1.4-2 3.5-2 6.3v37c-.1 2.3.6 4.5 1.9 6.3 1.3 1.5 3.2 2.3 5.2 2.3 2 .1 3.9-.8 5.2-2.2 1.5-1.8 2.2-4.1 2-6.4V26.8c.1-2.2-.6-4.3-2-5.9-1.3-1.3-3-2.1-4.8-2.1zM293.6 21c-1.3 1.4-1.9 3.5-1.9 6.3v23.4c0 19.9 18.1 22 23.5 22s23.8-2.2 23.8-22V27.3c0-2.8-.6-4.9-1.9-6.3-1.3-1.4-3.2-2.2-5.2-2.2-2-.1-3.9.7-5.3 2.2-1.3 1.4-2 3.5-2 6.3V48c0 12.8-6.4 13.3-9.4 13.3s-9.2-.6-9.2-13.4V27.3c0-2.8-.7-4.9-2-6.3-1.3-1.4-3.2-2.2-5.2-2.2s-3.9.8-5.2 2.2zM260 18.8c-2.9 0-9.8.7-15.2 4.9-5.4-4.2-12.2-4.9-15.1-4.9-5.1 0-22.6 2.2-22.6 22v23.5c0 2.8.6 4.9 1.8 6.3 1.4 1.4 3.3 2.2 5.2 2.2 2.1.1 4.2-.7 5.7-2.2 1.2-1.4 1.9-3.6 1.9-6.3V43.5c0-12.8 5-13.4 8-13.4s7.6.6 7.6 13.4v20.6c0 2.8.6 4.9 1.9 6.3.1.1.2.2.4.3 1.3 1.2 3.1 1.9 4.9 1.9h.2c2.1.1 4.1-.7 5.6-2.2 1.2-1.4 1.8-3.5 1.8-6.3V43c.2-12.2 5.1-12.8 7.9-12.8s7.6.6 7.6 13.4v20.6c0 2.8.6 4.9 1.9 6.3 1.4 1.4 3.4 2.2 5.4 2.2 2.1.1 4.1-.7 5.6-2.2 1.2-1.4 1.8-3.5 1.8-6.3V40.8c.1-19.9-17.2-22-22.3-22zM171.1 72.7c-14.9 0-27-12-27.1-26.9 0-14.9 12-27 26.9-27.1s27 12 27.1 26.9v.1c0 14.9-12 27-26.9 27zm0-40.3c-7.4 0-13.3 5.9-13.4 13.3 0 7.4 5.9 13.3 13.3 13.4s13.3-5.9 13.4-13.3c0-7.4-6-13.4-13.3-13.4zM380.3 47.6c-2.2-2.5-6.1-4.9-11.9-7.5-5.2-2.3-7-3.4-7.7-4.1-.7-.7-1.1-1.6-1.2-2.6-.1-1.2.4-2.5 1.3-3.3 1.1-.8 2.5-1.1 3.8-1 2.8 0 6 2 9.2 4.4 1.1.7 2.3 1.1 3.6 1.1 3.3.1 6-2.5 6.1-5.7 0-1.6-.7-3.1-1.9-4.1l-.2-.1c-.2-.2-.4-.4-.7-.5-5.1-3.8-10.4-5.7-15.6-5.7-4.6-.2-9.2 1.3-12.8 4.2-6 4.7-7.1 13.4-2.4 19.5.1.2.3.4.4.5 2.1 2.5 5.8 4.9 11.3 7.2 4.4 1.9 6.4 2.6 7.8 3.6 1.1.8 1.7 2.1 1.7 3.5-.1 1.5-.8 2.9-2.1 3.7-1.5 1.1-3.2 1.3-5.4 1.3-2.9 0-5.8-1.3-8.5-3.7-1.1-.8-2.5-1.3-3.9-1.3-3.3-.1-6.1 2.5-6.2 5.8 0 2 1.1 3.8 2.8 4.9 1.8 1.4 3.8 2.5 5.9 3.4 3.3 1.3 6.8 2 10.3 2 5.1.2 10-1.5 14-4.7 3.7-2.8 5.8-7.2 5.8-11.9 0-3.2-1.3-6.4-3.5-8.9zM79 44.5L66.9 30.9c-1.3-1.4-2.1-3.2-2.2-5.2 0-3.8 3.7-6.9 7.3-6.9 2.3 0 3.8 1 5.3 2.8l10 12.5 10-12.5c1.5-1.8 3-2.8 5.3-2.8 3.7 0 7.3 3.2 7.3 6.9-.1 1.9-.9 3.7-2.2 5.2l-12 13.6L110.2 61c1.2 1.4 1.9 3.1 2 4.9.2 3.7-2.7 6.8-6.3 6.9h-.7c-3.2 0-4.5-1.4-6-3.2L87.4 55.1 75.6 69.5c-1.5 1.8-2.8 3.2-6 3.2-3.7.2-6.8-2.6-7-6.3v-.7c.1-1.8.8-3.5 2-4.9L79 44.5zM56.4 65.3s-1-10.3-2.6-22.9c-1.9-14.8-15.5-25.2-30.3-23.3S-1.6 34.6.3 49.4s15.5 25.2 30.3 23.3c3.8-.5 7.5-1.8 10.7-3.8l-2-18c-2.7 6.8-10.4 10-17.1 7.3-6.8-2.7-10-10.4-7.3-17.1s10.4-10 17.1-7.3c4.4 1.8 7.5 5.8 8.2 10.5L42.8 67c.2 1.8 1.1 3.4 2.5 4.5 1.5 1.2 3.3 1.7 5.2 1.4 1.8-.2 3.5-1.1 4.6-2.6 1-1.5 1.6-3.3 1.3-5z"/></svg>