<svg id="Layer_1" xmlns="http://www.w3.org/2000/svg" viewBox="0 0 334.8 73"><style>.st0{fill:#e30045}.st1{fill:#b1c800}</style><path class="st0" d="M334.8 23.6l-.5 1.4c-.5 1.4-.9 2.2-1.4 3.3-.3.7-.7 1.5-1.2 2.6L321 57.2c-1.9 4.7-5.6 7.4-10.2 7.4-1.6 0-3.5-.5-4.5-.9l-1-.4.4-1c1.5-3.2 2.4-4.2 5.5-4.4 1.2-.1 2.4-1.5 3.3-3.6l.5-1.1-9.6-22.3c-.5-1.2-.9-2.1-1.3-3.1-.4-.9-.7-1.7-1.2-2.8l-.6-1.4h4.8c2.7 0 4 .8 5 3.5 0 0 5.3 13.1 5.7 14.1.4 1 .9 3.3.9 3.3h.2s.3-2.1.8-3.3c.4-1.2 5.1-14.1 5.1-14.1 1-2.6 2.3-3.5 5.1-3.5h4.9zM275.5 23.2c-3.2 0-7.2 2.8-8.1 6.3v-2.1c0-1.9-1.1-3.8-4.7-3.8h-2.6v30.7h7.5V41.5c0-1.9.2-3.5.6-4.9 1.1-3.7 3.9-6 7.1-6 .8 0 1.4.1 1.4.1l1.2.3v-7.6l-.9-.1c.1.1-.7-.1-1.5-.1zM297.3 23.2c-3.2 0-7.2 2.8-8.1 6.3v-2.1c0-1.9-1.1-3.8-4.7-3.8h-2.7v30.7h7.5V41.5c0-1.9.2-3.5.6-4.9 1.1-3.7 3.9-6 7.1-6 .8 0 1.4.1 1.4.1l1.2.3v-7.6l-.8-.1c.1.1-.7-.1-1.5-.1zM139.4 23.9c-9.4 0-16.4 6.9-16.4 16 0 9.2 7.1 16.1 16.4 16.1 9.2 0 16.5-7.1 16.5-16.1 0-9.1-7.1-16-16.5-16zm0 25.3c-5 0-8.8-4-8.8-9.3 0-5.2 3.8-9.2 8.8-9.2 5.1 0 8.9 4 8.9 9.2 0 5.3-3.8 9.3-8.9 9.3zM105.4 23.9c-4.2 0-7.2 1.7-8.9 3.2h-.2s.2-1.7.2-3.4v-5.8c0-3.1-1.5-4.6-4.6-4.6H89v26.9C89.4 50 95.5 56 104.9 56c8.7 0 15.3-6.9 15.3-16 0-9.2-6.4-16.1-14.8-16.1zm-1.3 25.4c-4.8 0-7.9-4.7-7.9-9.2 0-6.9 4.4-9.3 8-9.3 4.1 0 8.4 3.5 8.4 9.3 0 5.7-4.3 9.2-8.5 9.2zM206.9 23.9c-4.2 0-7.2 1.7-8.9 3.2h-.2s.2-1.7.2-3.4v-5.8c0-3.1-1.5-4.6-4.6-4.6h-2.9v26.9C190.9 50 197 56 206.4 56c8.7 0 15.3-6.9 15.3-16 0-9.2-6.4-16.1-14.8-16.1zm-1.3 25.4c-4.8 0-7.9-4.7-7.9-9.2 0-6.9 4.4-9.3 8-9.3 4.1 0 8.4 3.5 8.4 9.3 0 5.7-4.3 9.2-8.5 9.2z"/><path class="st0" d="M182.3 48.6l-6.1-9.7 5.2-7.8c.9-1.4 1.7-2.4 2.5-3.5.6-.8 1.1-1.5 1.8-2.5l1.1-1.6h-5.7c-3.2 0-4.4.7-6.1 3.5 0 0-2.3 3.8-2.6 4.3-.3.5-1.1 2.3-1.1 2.3h-.2s-.7-1.6-1.1-2.3c-.4-.7-2.6-4.3-2.6-4.3-1.8-2.8-3-3.5-6.1-3.5h-5.6l1.1 1.6c1.4 1.9 2.1 3.1 3.3 4.8l6.1 9-5.1 8.5c-.9 1.4-1.7 2.4-2.5 3.5-.6.8-1.1 1.6-1.8 2.5l-1.1 1.6h5.7c3.2 0 4.4-.7 6.1-3.5 0 0 2.3-3.8 2.6-4.3.3-.5 1.1-2.3 1.1-2.3h.2s.7 1.6 1.1 2.3c.4.7 2.6 4.3 2.6 4.3 1.8 2.8 3 3.5 6.1 3.5h5.6l-1.1-1.6c-1.4-2-2.2-3.1-3.4-4.8zM250.3 46.6c-.9 0-1.6.4-2.4.7h-.1c-1.6.7-3.5 1.6-5.8 1.6-3.9 0-9-2.4-9.4-7.7h21.6c.1-1 .2-2.5.2-3.3 0-8.6-5.7-14.4-14.2-14.4-9.1 0-15.4 6.6-15.4 16 0 9.3 7.5 16 16.9 16 7.6 0 11.9-4.6 12.1-4.8l.5-.5-.3-.6c-.7-1.4-1.7-3-3.7-3zm-9.6-17.2c3.2 0 6.6 2 6.6 6.1h-14.6c.4-3.1 3.7-6.1 8-6.1zM30.6 58.7c3.3-3.3 8.6-3.3 11.8 0 3.3 3.3 3.3 8.6 0 11.8-3.3 3.3-8.6 3.3-11.8 0-3.3-3.2-3.3-8.5 0-11.8M44.6 44.6c-3.3 3.3-3.3 8.6 0 11.8 3.3 3.3 8.6 3.3 11.8 0 3.3-3.3 3.3-8.6 0-11.8-3.2-3.2-8.5-3.2-11.8 0M58.7 30.6c-3.3 3.3-3.3 8.6 0 11.8 3.3 3.3 8.6 3.3 11.8 0 3.3-3.3 3.3-8.6 0-11.8-3.2-3.3-8.5-3.3-11.8 0M16.5 44.6c-3.3 3.3-3.3 8.6 0 11.8 3.3 3.3 8.6 3.3 11.8 0 3.3-3.3 3.3-8.6 0-11.8-3.2-3.2-8.5-3.2-11.8 0M2.5 30.6c-3.3 3.3-3.3 8.6 0 11.8 3.3 3.3 8.6 3.3 11.8 0 3.3-3.3 3.3-8.6 0-11.8-3.3-3.3-8.6-3.3-11.8 0M30.6 30.6c-3.3 3.3-3.3 8.6 0 11.8 3.3 3.3 8.6 3.3 11.8 0 3.3-3.3 3.3-8.6 0-11.8-3.3-3.3-8.6-3.3-11.8 0M16.5 16.5c-3.3 3.3-3.3 8.6 0 11.8 3.3 3.3 8.6 3.3 11.8 0 3.3-3.3 3.3-8.6 0-11.8-3.2-3.3-8.5-3.3-11.8 0M44.6 16.5c-3.3 3.3-3.3 8.6 0 11.8 3.3 3.3 8.6 3.3 11.8 0 3.3-3.3 3.3-8.6 0-11.8-3.2-3.3-8.5-3.3-11.8 0"/><path class="st1" d="M30.6 2.4c3.3-3.3 8.6-3.3 11.8 0 3.3 3.3 3.3 8.6 0 11.8-3.3 3.3-8.6 3.3-11.8 0-3.3-3.2-3.3-8.5 0-11.8"/></svg>