<svg xmlns="http://www.w3.org/2000/svg" viewBox="0 0 29 20" shape-rendering="geometricPrecision" text-rendering="geometricPrecision" image-rendering="optimizeQuality" fill-rule="evenodd" clip-rule="evenodd"> <defs> <style> .fil3 {fill:#fefefe; fill-rule:nonzero;} .fil6 {fill:#babbbb;fill-rule:nonzero;} .fil1 {fill:#A8A8A9;fill-rule:nonzero} .fil5 {fill:#CD2628;fill-rule:nonzero} .fil4 {fill:#005EA8;fill-rule:nonzero} .fil2 {fill:#015191;fill-rule:nonzero} .fil0 {fill:#08406F;fill-rule:nonzero} </style> </defs> <g id="Слой_x0020_1"> <path class="fil0" d="M15 20h-1-1v-1h-2v-1h-1v-4 1H9c0-1-1-1-1-1v-1-1c-1 0-1-1-1-1v-1s0-1 1-2H5L0 2c0-1 0-1 1-1h8s1 0 2 1c1 0 1 1 1 1h1V2h-1V1s0-1 1-1h2s1 0 1 1v2h1l1-1c1-1 2-1 2-1h9v1l-5 6h-3c1 1 1 2 1 2h1s0 1-1 1v1h-1v2s-1 0-1 1c-1 0-1 0-1-1v4h-1v1h-2v1h-1z"/> <path class="fil1" d="M28 2h1-9-1c-1 1-2 1-2 1h-1V2l-1-1h-3 1c1 0 1 1 1 1v1h-1-1s-1 0-1-1H1h5v1H1h6v1H2h6-5v1h6-6l1 1h5-5 6v1H5h8l-2 6-1 4h1l2-10-2 11h1l2-11-1 12h1V7v12h1V7l1 12h1L15 7l2 11h1L16 7l2 10h1l-1-4-2-6h9-6V6h6-5 5l1-1h-5 5V4h-5 6-5V3h6-5V2h5z"/> <path class="fil0" d="M18 12h-1c0 1-1 1-1 1l-1 1c-1 0-1 0-2-1 0 0-1 0-1-1l-1-1-1 1-1 1h1v1s1 0 1 1h1c1 1 2 1 3 1 0 0 1 0 2-1h1c0-1 1-1 1-1 0-1 1-1 1-1l-1-1s0-1-1-1v1z"/> <path class="fil2" d="M20 14c-1 0 0 0 0 0v-1h-1l1 1z"/> <path class="fil3" d="M21 10c0 1-1 1-1 2 1 1 0 1 0 2-1 0 0 0 0 0v-1l-1-1v-1c0-1 0-2 1-2 0-1 0 0 0 0l1 1z"/> <path class="fil4" d="M20 14v-1l-1-1 1-1V9l1 1s-1 0-1 2v2z"/> <path class="fil2" d="M21 11v-1 1z"/> <path class="fil3" d="M21 9h-1 1l1 1c-1 0-1 0-1 1l1-1-1-1zM22 10zM22 10z"/> <path class="fil4" d="M22 10l-1-1v2c0-1 0-1 1-1z"/> <path class="fil2" d="M10 14H9v-1h1v1z"/> <path class="fil3" d="M8 10c1 1 1 1 1 2v2h0v-1l1-1v-1c0-1 0-2-1-2 0-1 0 0 0 0l-1 1z"/> <path class="fil4" d="M10 14H9v-1l1-1v-1c0-2-1-2-1-2l-1 1s1 0 1 2c0 1 0 2 1 2z"/> <path class="fil2" d="M8 11v-1 1z"/> <path class="fil3" d="M8 9h1-1v2l-1-1 1-1zM7 10zM7 10z"/> <path class="fil4" d="M8 10V9h1l-1 1v0z"/> <path class="fil3" d="M15 16c-1 0-2 0-3-1-1 0-1-1-2-1 0-1-1-1-1-1l1-1c1-1 1-1 1 0 1 0 1 1 2 1 1 1 1 1 2 1 0 0 1 0 1-1 1 0 1-1 2-1 0-1 0-1 1 0l1 1s-1 0-1 1c0 0-1 1-2 1-1 1-2 1-2 1z"/> <path class="fil4" d="M15 16c-1 0-2 0-3-1 0-1-1-1-2-2v-1c1-1 1 0 1 0 1 0 1 1 2 1 0 1 1 1 2 1 0 0 1 0 1-1 1 0 2-1 2-1s0-1 1 0l1 1h-1l-2 2c-1 1-2 1-2 1z"/> <path class="fil3" d="M10 12v1h1v-1h-1zM11 13v-1 1c1 0 0 0 0 0zM11 13v1l1-1-1 1 1-1zM11 14h1v-1zM12 14v-1l1 1h-1 1-1v1-1z"/> <path class="fil3" d="M13 15h-1v-1h1v1-1 1zM13 14v1-1zm0 1zm1-1h-1v1h1v-1z"/> <path class="fil3" d="M14 15zm0 0c0-1 0 0 0 0h-1 1zM14 15v0h0zM15 16v-1 1zm0-1v0zM16 15v-1 1zm0 0v-1h-1l1 1zM16 15v-1 1c1 0 1 0 0 0zm1 0l-1-1v1h1zM17 14h-1 1s0 1 0 0zM17 14v-1 1-1 1h1-1z"/> <path class="fil3" d="M18 14l-1-1h1-1 1v1-1 1zM18 13v-1l1 1h-1z"/> <path class="fil3" d="M18 13h1v-1c-1 0-1 0-1 1z"/> <path class="fil0" d="M15 14c-1 0-2-1-2-1-1-1-1-2-2-2-1-2-1-5-1-5 2 0 4-1 4-1h1s2 1 4 1c0 0 0 3-1 5l-2 2-1 1z"/> <path class="fil3" d="M15 5c-1 0-5 1-5 1s0 3 1 4c1 2 3 3 4 3 0 0 2-1 3-3 1-1 1-4 1-4l-4-1z"/> <path class="fil0" d="M15 13c-1 0-3-1-4-3V6c1 0 3 0 4-1 0 1 3 1 3 1h1c0 1 0 3-1 4-1 2-3 3-3 3z"/> <path class="fil3" d="M11 7s0 2 1 3c0 1 0 2 1 2 1 1 1 1 2 1l1-1c1 0 1-1 2-2V7c0-1-3-1-3-2-1 1-4 1-4 2z"/> <path class="fil5" d="M18 10h-6c0 1 0 2 1 2 1 1 1 1 2 1l1-1c1 0 1-1 2-2z"/> <path class="fil4" d="M18 7h-7c0 1 0 2 1 3h6V7z"/> <path class="fil0" d="M16 5h-1V4 3h-1v2h-1 1v8h1v-1-6-1h1z"/> <path class="fil3" d="M15 3h-1 1z"/> <path class="fil6" d="M15 5v0z"/> <path class="fil3" d="M14 6v6h1V5h-1v1zM16 5h-2-1 3zM15 5h-1 1z"/> </g> </svg>