<svg id="Слой_1" xmlns="http://www.w3.org/2000/svg" viewBox="0 0 492.3 109.2"><style>.st0{fill:url(#SVGID_1_)}.st1{fill:#fff}.st2{fill:#c9c8c8}</style><path d="M197.2 28.8h-10.3c-20.6 0-38.2 51.7-13.9 51.7h15.6c9 0 15.7 3.3 12.7 12.1l-4.1 12.1h-16.6l-13.5-.1c-17.2-.2-28.4-8.6-32.4-21.4-4.3-13.9 1.8-42.8 19.6-61.3 10.4-10.8 24.7-17.3 43-17.3h33.8l-5.3 15.2c-3.4 9.8-10.4 9.1-14.4 9.1l-14.2-.1zM384 42.6h-54.5c-9 0-13.1 2.5-14.7 7.7l-5.1 16.5h54.5c9 0 13.1-2.5 14.7-7.7l5.1-16.5zM370.8 80.5h-54.5c-9 0-13.1 2.5-14.7 7.7l-5.1 16.5H351c9 0 13.1-2.5 14.7-7.7l5.1-16.5zm25.9-75.9h-54.5c-9 0-13.1 2.5-14.7 7.7l-5.1 16.5h54.5c9 0 13.1-2.5 14.7-7.7l5.1-16.5zM259.7 28.7h13.6c11.6 0 8.9 14.4 3.1 28.5-5.2 12.4-14.3 23.3-25.2 23.3h-22.6c-9 0-13.2 2.5-14.9 7.7l-5.6 16.5h16.6l16.2-.1c14.4-.1 26.1-1.2 39.9-13.5 14.5-13.1 31.5-47 28.6-66.6C307 9.1 298.8 4.6 278.8 4.6h-36.5l-21.2 62.1h13.5c8 0 12.1.1 16.3-11.4l8.8-26.6zM374.9 104.7h25.7l11-31.5 11.5-9.7 9 28.5c2.8 8.8 5.7 12.7 12 12.7h19.7l-20.3-56 48.8-44.3h-31.5L431.2 36c-3.5 3.7-6.9 7.3-10.4 11.6h-.3l14.8-43.1h-25.7l-34.7 100.2z"/><radialGradient id="SVGID_1_" cx="43.694" cy="639.757" r="87.123" gradientTransform="translate(0 -596.064)" gradientUnits="userSpaceOnUse"><stop offset="0" stop-color="#abcb56"/><stop offset=".31" stop-color="#a6c756"/><stop offset=".92" stop-color="#367741"/><stop offset="1" stop-color="#367741"/></radialGradient><path class="st0" d="M41.1 1.7c29.1-7.5 59 10.2 66.5 39.3s-10.2 59-39.3 66.5C39 115 9.2 97.3 1.7 68.2-5.8 39 11.9 9.2 41.1 1.7z"/><path class="st1" d="M29.9 35.8c7.2 1.6 14.6 2.6 22.5 2.9 13.3.4 27.8.1 45.1 0h6.1c1.4 0 1.9 1.6.3 2.1l-5.4 1.5C66 52.1 41.2 64.2 23.2 93.7c-.7 1.2-1.9.5-1.7-.9 1.9-13.6 3.9-25 10.1-37.3-3.6-5-2.6-10.6-6.3-18.9-.4-.9-.7-1.7-1-2.3-.5-1.4.3-2 1.4-1.5 2.8 1.3.8 2.2 4.2 3z"/><path class="st2" d="M29.9 35.8c7.2 1.6 14.6 2.6 22.5 2.9 11.8.4 24.6.1 39.5 0-29.2 9.4-52.7 22.8-69.7 48.8 1.7-11.3 3.9-21.2 9.3-31.9-.8-1.2-1.7-2.4-2.6-3.7.2-.4.4-.9.7-1.3-3.3-4.7-7.3-10.1-10.8-17.4.1-.7.7-.9 1.6-.6 2.8 1.2 6.1 2.4 9.5 3.2z"/><path class="st1" d="M24.6 26.2c7.2 1.6 14.6 2.6 22.5 2.9 13.3.4 27.8.1 45.1 0h6.1c1.4 0 1.9 1.6.3 2.1l-5.4 1.5c-32.6 9.8-58.4 23.9-76.3 53.4-.7 1.2-1.9 1-1.7-.4 2.3-13.5 4.9-27.3 11.1-39.7-3.6-5.1-7.9-10.9-11.6-19.2-.4-.9-.7-1.6-1-2.2-.5-1.4.5-2.1 1.7-1.5 1.3.6 5.8 2.3 9.2 3.1z"/></svg>