<svg id="svg2" xmlns="http://www.w3.org/2000/svg" xmlns:xlink="http://www.w3.org/1999/xlink" viewBox="0 0 2590 1133.9"><style>.st0{clip-path:url(#SVGID_2_)}.st1{fill:#393536}.st2{clip-path:url(#SVGID_4_)}.st3{fill:url(#path44_1_)}</style><g id="g12"><defs><path id="SVGID_1_" d="M-486.5-486.5h3563v2106.9h-3563z"/></defs><clipPath id="SVGID_2_"><use xlink:href="#SVGID_1_" overflow="visible"/></clipPath><g id="g14" class="st0"><g id="g20"><path id="path22" class="st1" d="M98.9-282.2c18.4-7.4 44.2-10.1 66.4-10.1 68.3 0 115.4 39.7 115.4 110.7C280.7-97.9 228.6-60 158.9-59v96.9c1.8 0 3.7.1 5.6.1 143 0 228.9-80.3 228.9-223.3C393.3-315.5 302-392 167.2-392c-68.3 0-135.7 15.7-180 34.1v552.8H98.9v-477.1zm623.9.9c-17.6-8.3-40.6-12.9-68.3-12.9-67.4 0-112.6 41.5-112.6 114.4 0 78.5 48.9 122.8 127.4 122.8 13.8 0 35.1-1 53.5-4.6v-219.7zM833.5 18.6c-48.9 13-112.6 19.4-168 19.4-142.1 0-236.3-75.6-236.3-214.1 0-131 87.7-215.9 216-215.9 28.6 0 59.1 3.6 77.5 12.9v-190.2h110.7V18.6zM-185.9-281.3c-17.5-8.3-40.6-12.9-68.3-12.9-67.3 0-112.6 41.5-112.6 114.4 0 78.5 48.9 122.8 127.4 122.8 13.8 0 35.1-1 53.5-4.6v-219.7zM-75.2 18.6c-48.9 13-112.6 19.4-168 19.4-142.1 0-236.2-75.6-236.2-214.1 0-131 87.7-215.9 216-215.9 28.6 0 59 3.6 77.5 12.9v-190.2h110.7V18.6z" transform="translate(1756.451 815.41)"/></g></g></g><g id="g24"><defs><path id="SVGID_3_" d="M468.7 4L24.6 246.1l497.5 289.6c4.6 2.5 8.1 8.5 8.1 13.9v422.5c0 5.3-3.8 11.4-8.4 13.9l-26.8 14.9c-2.2 1.2-5.1 1.8-8 1.8h-.5c-3.2.1-6.2-.6-8.5-1.8L451.1 986c-4.6-2.4-8.3-8.6-8.3-13.9V595.4c-.2-2.8-2.3-6.1-4.5-7.4L0 333v499.8c0 11.2 7.9 25 17.5 30.6L469 1129.6c4.8 2.8 11.2 4.2 17.5 4.2 6.4 0 12.7-1.4 17.5-4.2l451.5-266.3c9.6-5.7 17.5-19.4 17.5-30.6V333L676 506c-4.6 2.7-11.8 2.5-16.2-.3L633.5 490c-2.1-1.3-4.1-3.5-5.6-6-.1-.1-.2-.3-.3-.4-1.7-2.7-2.6-5.6-2.7-8.3l-.7-30.7c-.2-5.2 3.2-11.5 7.8-14.2L948.5 246 504.3 4c-4.9-2.7-11.3-4-17.8-4h-.1c-6.4 0-12.8 1.3-17.7 4"/></defs><clipPath id="SVGID_4_"><use xlink:href="#SVGID_3_" overflow="visible"/></clipPath><g id="g26" class="st2"><g id="g32"><g id="g34"><linearGradient id="path44_1_" gradientUnits="userSpaceOnUse" x1="988.36" y1="964.72" x2="989.36" y2="964.72" gradientTransform="scale(643.1635 -643.1635) rotate(40 1821.513 -876.126)"><stop offset="0" stop-color="#b00b39"/><stop offset=".737" stop-color="#e91440"/><stop offset="1" stop-color="#e91440"/></linearGradient><path id="path44" class="st3" d="M468.7 4L24.6 246.1l497.5 289.6c4.6 2.5 8.1 8.5 8.1 13.9v422.5c0 5.3-3.8 11.4-8.4 13.9l-26.8 14.9c-2.2 1.2-5.1 1.8-8 1.8h-.5c-3.2.1-6.2-.6-8.5-1.8L451.1 986c-4.6-2.4-8.3-8.6-8.3-13.9V595.4c-.2-2.8-2.3-6.1-4.5-7.4L0 333v499.8c0 11.2 7.9 25 17.5 30.6L469 1129.6c4.8 2.8 11.2 4.2 17.5 4.2 6.4 0 12.7-1.4 17.5-4.2l451.5-266.3c9.6-5.7 17.5-19.4 17.5-30.6V333L676 506c-4.6 2.7-11.8 2.5-16.2-.3L633.5 490c-2.1-1.3-4.1-3.5-5.6-6-.1-.1-.2-.3-.3-.4-1.7-2.7-2.6-5.6-2.7-8.3l-.7-30.7c-.2-5.2 3.2-11.5 7.8-14.2L948.5 246 504.3 4c-4.9-2.7-11.3-4-17.8-4h-.1c-6.4 0-12.8 1.3-17.7 4"/></g></g></g></g></svg>