<svg id="Layer_1" xmlns="http://www.w3.org/2000/svg" viewBox="0 0 79.3 47.8"><style>.st0{fill:#414042}.st1{fill:#ffcb05}</style><path id="XMLID_93_" class="st0" d="M30.2 17.3h2.5v13.2h-2.5z"/><path id="XMLID_92_" class="st0" d="M42.7 30.6h-2.2v-6.3c0-1.3-.6-2-1.6-2.1-.7-.1-1.7.1-2.4.3v8.1h-2.2v-9.7s2.6-.6 5-.6c1 0 1.9.4 2.5 1 .6.6.9 1.5.9 2.6v6.7z"/><path id="XMLID_107_" class="st0" d="M52 21.9c0-1.6-.8-2.4-2.3-2.4h-2.8v4.8h2.7c.7 0 1.3-.2 1.8-.6.4-.5.6-1.1.6-1.8m2.6 0c0 1.3-.4 2.4-1.3 3.3-.8.8-2 1.2-3.4 1.2h-3v4.2h-2.4V17.3h5.3c1.5 0 2.7.4 3.6 1.2.8.8 1.2 1.9 1.2 3.4"/><path id="XMLID_104_" class="st0" d="M62.3 25.6c0-1-.2-1.8-.7-2.4-.5-.6-1.1-.9-1.8-.9-.8 0-1.4.3-1.8.9-.5.6-.7 1.4-.7 2.3 0 1 .2 1.8.7 2.4s1.1.9 1.8.9c.8 0 1.4-.3 1.8-.9.5-.6.7-1.3.7-2.3m2.3 0c0 1.6-.4 2.9-1.3 3.8-.9 1-2 1.5-3.5 1.5-1.4 0-2.6-.5-3.5-1.5S55 27.2 55 25.6c0-1.6.4-2.9 1.3-3.8.9-1 2-1.4 3.5-1.4 1.4 0 2.6.5 3.5 1.4.8.9 1.3 2.2 1.3 3.8"/><path id="XMLID_87_" class="st0" d="M74 27.4c0 1-.4 1.8-1.2 2.5-.8.6-1.8 1-3.1 1-2 0-3.5-.6-4.6-1.8l1.7-1.4c.8.8 1.8 1.2 2.9 1.2.6 0 1.1-.1 1.5-.4.4-.2.5-.5.5-.9s-.2-.7-.6-.9c-.2-.1-.9-.2-1.9-.4-1.3-.2-2.2-.5-2.7-.8-.6-.4-.9-1.1-.9-2 0-.9.4-1.7 1.1-2.3.8-.6 1.8-.9 3-.9 1.5 0 2.8.5 3.9 1.5l-1.3 1.4c-.8-.7-1.7-1-2.7-1-1.3 0-1.9.4-1.9 1.1 0 .4.3.7.9.9.8.1 1.6.3 2.5.4 1.9.3 2.9 1.2 2.9 2.8"/><path id="XMLID_86_" class="st0" d="M79.2 30.6c-.4.1-.7.1-1.1.1-1.2 0-2.1-.3-2.4-.8-.3-.4-.5-1.3-.5-2.5v-9.7h2.2v2.9h1.9v1.8h-1.9v5c0 .6.1 1 .2 1.1.2.2.5.4 1.1.4h.6l-.1 1.7z"/><path id="XMLID_85_" class="st1" d="M11.4 23.9s-2.6 1-5.7 1-5.7-1-5.7-1 2.6-1 5.7-1 5.7 1 5.7 1"/><path id="XMLID_84_" class="st1" d="M19.4 9.3s-2.3-1.5-4-4.1C13.6 2.6 13 0 13 0s2.3 1.5 4 4.1c1.8 2.6 2.4 5.2 2.4 5.2"/><path id="XMLID_83_" class="st1" d="M13.5 15.6s-2.7-.3-5.5-1.8-4.6-3.5-4.6-3.5 2.7.3 5.5 1.8c2.9 1.5 4.6 3.5 4.6 3.5"/><path id="XMLID_82_" class="st1" d="M19 28.4c1.7-.5 3.1-1.2 3.1-1.2s-3.9-1.1-3.6-5.2c.9-6.7 6.3-12 13.1-12.8-.7-.1-1.5-.2-2.2-.1-8.4 0-15.2 6.7-15.1 15 0 8.2 6.9 14.9 15.3 14.8.7 0 1.4-.1 2.1-.1-6.1-.9-11-5-12.7-10.4"/><path id="XMLID_81_" class="st1" d="M19.4 38.5s-2.3 1.5-4 4.1c-1.8 2.6-2.4 5.2-2.4 5.2s2.3-1.5 4-4.1c1.8-2.6 2.4-5.2 2.4-5.2"/><path id="XMLID_80_" class="st1" d="M13.5 32.2s-2.7.3-5.5 1.8-4.6 3.5-4.6 3.5 2.7-.3 5.5-1.8c2.9-1.5 4.6-3.5 4.6-3.5"/></svg>