<svg id="svg34" xmlns="http://www.w3.org/2000/svg" viewBox="0 0 555 181.5"><style>.st0{fill:#f07c00}.st1{fill:#006da3}</style><path id="path2" class="st0" d="M244.4 60.8l-5.8-10.9H213l15.1 25.2-27.5 29.4 26.2.1 13.5-14.4 8.9 14.6 26-.1-18.5-27.8 23.6-27.1-26.7.1-9.2 10.9z"/><g id="g20"><path id="path4" class="st1" d="M356.9 24.1c10.4-1.2 19.7.2 17 12.6-2 9.2-10.3 10.1-20.3 9.4l3.3-22zm-7.4 45.6l12.6.1c4 0 7.8-.3 11.7-.9 21-3.4 34.9-20.7 32.7-44-1.4-15-12.1-22.1-27.2-23.9C368-.4 341.4-.1 329.6.6l-16.2 103.8 31.2-.4 4.9-34.3z"/><path id="path6" class="st1" d="M45.9 51.8l10.9 52.7 17.3.1 27.1-51.9-1.7 51.8c5.6.2 27.3.9 31.2-.5L132.6.3H99.7L73.2 53.5 64.8.6 31.1.5 0 104.6l30.6.1 15.3-52.9z"/><path id="path8" class="st1" d="M167 88.6c-13.4-2.3-8.2-19.2.6-22 13.9-4.4 17.3 11.3 7.8 19.8-2.6 1.7-5.3 2.7-8.4 2.2zM180.8 99c1.9 3.9 1.4 2.2 2.7 5.5l13.8.1 8-54.7-21.7.1.1 6.2c-.9-2.2-25.5-25.7-45.2 15.5-10.1 35.7 22.4 43.2 42.3 27.3z"/><path id="path10" class="st1" d="M420.8 106.5c33.2 3.3 50.6-40.1 27.3-54.3-22.6-13.8-62.4 5.1-52.8 39.6.2 0 4.1 7.1 10.6 10.7 6.1 3.5 15 3.6 14.9 4zm2.7-17.9c-13.4-2.3-8.2-19.2.6-22 13.9-4.4 17.3 11.3 7.8 19.8-2.6 1.7-5.3 2.7-8.4 2.2z"/><path id="path12" class="st1" d="M465.6 86.5l-8.7 14.6c13.3 8.4 34.3 7.5 44.1-2.6 4.5-4.6 8.9-14.3 4.6-22.1-4.3-7.9-15.7-4.4-19.4-9.5.3-8.8 12.8-2.7 17.2-1.8l6.9-13.5c-9.2-2.9-17.6-5.8-29.1-2.2-17.1 5.5-20.7 23.9-12.4 30 3.8 2.8 8 2.8 12.8 4.5 6.4 2.3 4.1 7.5-3.2 7.3-6.6-.1-8.7-2.7-12.8-4.7z"/><path id="path14" class="st1" d="M553.1 67.6L555 50l-8.8.1 2.7-18.8-21.4-.1-3.1 18.1h-5.8l-3.3 18.2 6.1.3-5.5 36.9 21.7-.1 5.7-36.5 9.8-.5z"/><path id="path16" class="st1" d="M278.9 104.4l21.7.2 8.2-54.7-21.3.1-8.6 54.4z"/><path id="path18" class="st1" d="M299.3 21c-14.3 4.1-12.7 26.4 4.1 21.7 12.8-3.6 12.8-26.6-4.1-21.7z"/></g><g id="g26"><path id="path22" class="st0" d="M391.1 134.8c-72.6 72.3-206.4 50.6-221.5-52.5 37.2 106 169.3 80 203 36l-17.5-8.5 68-22.5-23 66.5-9-19z"/><path id="path24" class="st0" d="M389.8 141.9c-23.1 21.2-51.5 33.8-80.3 38-21 3.1-42.2 1.7-61.7-3.9-19.6-5.7-37.4-15.7-51.5-29.9-15.9-15.9-27.1-37-30.9-63.2-.3-2.3 1.3-4.5 3.6-4.8 2.1-.3 4.1 1 4.7 3 7.9 22.4 20.2 38.7 34.9 49.9 16.9 12.9 37.1 19.3 57.5 20.9 20.6 1.6 41.4-1.6 59.4-7.9 16.9-5.9 31.3-14.5 40.4-24.3l-12.6-6.1c-2.1-1-3-3.6-2-5.7.5-1.1 1.4-1.8 2.5-2.2l68-22.5c2.2-.7 4.6.5 5.4 2.7.3 1 .3 2.1-.2 3.1l-22.9 66.2c-.8 2.2-3.2 3.4-5.4 2.6-1.1-.4-2-1.2-2.4-2.2l-6.5-13.7zm1.3-7.1c-72.6 72.3-206.4 50.6-221.5-52.5 37.2 106 169.3 80 203 36l-17.5-8.5 68-22.5-23 66.5-9-19z"/></g></svg>