<svg id="svg2" xmlns="http://www.w3.org/2000/svg" viewBox="0 0 242.7 61"><style>.st0{fill:none}.st1{fill:#ed1345}.st2{fill:#1f2569}</style><path class="st0" d="M0 0h243.8v134.7H0z"/><g id="g16"><path id="path22" class="st1" d="M242.7 1.6s-4.8-.6-10.3-.6c-5.5 0-10.1.5-10.1.5v17.8h20.4V1.6"/><path id="path24" class="st1" d="M242.7 42.5h-20.4v16.9s5.8.6 10.4.6c4.6 0 10.1-.7 10.1-.7V42.5"/><path id="path26" class="st2" d="M214 1.5h-24l-16.7 20.9h-7.8V1.5h-20.8v58h20.8V37.7h7.5l16.8 21.8h25.7l-25.1-30.8L214 1.5"/><path id="path28" class="st2" d="M65.5 1.5H0v57.9h21V17.9h23.5v41.5h21V1.5"/><path id="path30" class="st2" d="M76 16.9L73 1.5S92.6 0 104.8 0c12.1 0 26.8 1.5 26.8 1.5s4.6 11.8 4.6 28.3c0 16.6-4.6 29.6-4.6 29.6s-14.1 1.5-27 1.5C91.8 61 73 59.5 73 59.5l3-15.4s13.2 1 24.4 1 15.6-1 15.6-1 .5-2.9.8-6.2H89.9V23.1h27c-.3-3.8-.8-6.2-.8-6.2s-9.2-1-17.1-1c-7.8 0-23 1-23 1"/></g></svg>