<svg id="svg2" xmlns="http://www.w3.org/2000/svg" xmlns:xlink="http://www.w3.org/1999/xlink" viewBox="0 0 630.3 160.1"><style>.st0{fill:#6e6e6d}.st1{font-family:&apos;ArialMT&apos;}.st2{font-size:115.1553px}.st3{fill:#fba870}.st4{font-family:&apos;MyriadPro-Regular&apos;}.st5{clip-path:url(#SVGID_2_)}</style><text transform="translate(135.596 122.705)" class="st0 st1 st2">P</text><text transform="translate(209.18 122.705)" class="st0 st1 st2">i</text><text transform="translate(237.74 122.705)" class="st0 st1 st2">c</text><text transform="translate(296.699 122.705)" class="st0 st1 st2">k</text><text transform="translate(358.997 122.705)" class="st3 st4 st2">P</text><text transform="translate(431.316 122.705)" class="st3 st4 st2">o</text><text transform="translate(499.488 122.705)" class="st3 st4 st2">i</text><text transform="translate(522.979 122.705)" class="st3 st4 st2">n</text><text transform="translate(592.187 122.705)" class="st3 st4 st2">t</text><g id="g20"><defs><path id="SVGID_1_" d="M-66.7-108h1122.5v793.7H-66.7z"/></defs><clipPath id="SVGID_2_"><use xlink:href="#SVGID_1_" overflow="visible"/></clipPath><g id="g22" class="st5"><g id="g28"><path id="path30" class="st3" d="M-31.8-406.9c0 6.4-5.2 11.6-11.6 11.6-6.4 0-11.6-5.2-11.6-11.6 0-6.4 5.2-11.6 11.6-11.6 6.4 0 11.6 5.2 11.6 11.6" transform="translate(104.561 468.26)"/></g><g id="g32"><path id="path34" class="st0" d="M-34.7-460.6c-8.6 0-15.9 3-21.8 9.1s-8.9 13.3-8.9 21.6c0 8.6 2.9 15.9 8.9 21.8 5.9 5.9 13.2 8.9 21.8 8.9 8.3 0 15.5-2.9 21.6-8.9C-7-414-4-421.3-4-429.9c0-8.4-3-15.6-9.1-21.6-6-6.1-13.2-9.1-21.6-9.1m0 92c-17 0-31.5-6-43.4-17.9C-90-398.4-96-412.9-96-429.9c0-16.7 6-31.1 17.9-43.2 12-12.1 26.4-18.1 43.4-18.1 16.7 0 31 6 43 18.1 11.9 12.1 17.9 26.5 17.9 43.2v61.4h-60.9z" transform="translate(96.019 491.275)"/></g></g></g><g id="g44"><defs><path id="SVGID_3_" d="M-66.7-108h1122.5v793.7H-66.7z"/></defs><clipPath id="SVGID_4_"><use xlink:href="#SVGID_3_" overflow="visible"/></clipPath></g></svg>