<svg id="svg2784" xmlns="http://www.w3.org/2000/svg" viewBox="0 0 600 290.7"><style>.st0{fill:#0055a5}.st1{fill:#fff}</style><path id="polygon12" class="st0" d="M0 290.6h600V0H0z"/><path id="path20" class="st1" d="M134 161.6v81.8h13.5v-23.8c2.6 2.3 5.5 3.7 8.7 3.7 4.5 0 8.1-2.3 11-7 3.2-5.2 4.8-12.9 4.8-23 0-7-1.3-13.4-3.8-18.8l-.4-.9-.4-.7-.3-.7-.4-.6-.4-.7-.6-.7-.4-.6-.4-.6-.6-.6-.4-.6-.6-.6-.6-.4-.6-.6-.6-.4-.6-.4-.6-.4-.7-.3-.6-.4-.6-.3-.7-.3-.7-.3-.7-.3-.7-.3-.7-.1-.7-.1-.7-.1-.9-.3h-.7l-.9-.1h-.7l-.9-.1h-.9l-14.5-.4zm12.7 11.6h1.3c3.4 0 6 2 7.9 5.7 1.9 3.8 2.8 9.6 2.8 17.6 0 4.3-.5 7.8-1.8 10.1-1.2 2.3-2.7 3.5-4.4 3.5-1.6 0-3-1.1-4.1-3.2-1.1-2.1-1.8-5-1.8-8.9v-24.8h.1z"/><path id="path26" class="st1" d="M451.4 157.6l-1.1 1.1s-28.2 29.4-30.3 31.7v-28.9h-13.2v82H420v-33.7c.4-.4 17.3-18.4 19.2-20.4.1 3 1.9 54.1 1.9 54.1h13.5l-3.2-85.9z"/><path id="path28" class="st1" d="M387 158.7l-.1.1-.1.1-.1.2-.2.2-.2.2-.2.2-.3.3-.3.3-.4.4-.4.4-.4.4-.4.4-.4.5-.5.5-.5.5-1.1 1.1-1.1 1.2-1.2 1.2-1.2 1.3-1.3 1.3-1.4 1.3-1.3 1.4-1.4 1.5-2.8 2.9-1.3 1.4-1.3 1.4-1.3 1.3-1.2 1.4-1.2 1.2-1.1 1.2-1.1 1.1-.5.5-.5.5-.5.5-.4.5-.3.4-.4.4-.4.4-.4.4-.3.3-.2.2-.2.2-.2.2-.2.1-.1.2v-28.9h-13.3v82h13.3v-33.7c.4-.4 17.3-18.4 19.2-20.4.1 3 1.9 54.1 1.9 54.1h13.4l-3.2-85.9-.9 1.1z"/><path id="path30" class="st1" d="M310.3 223.2l-.8-1-.7-1-.7-1.1-.6-1.1-.6-1.2-.5-1.2-.5-1.2-.4-1.2-.4-1.3-.4-1.3-.3-1.4-.2-1.4-.2-1.5-.1-1.5-.1-1.5-.1-1.5c0-8.6 2.1-15.5 6.2-20.5 4.5-5.5 11.1-8.3 19.7-8.3h.6v-14.3h-.6c-13.4 0-23.6 4.1-30.6 12.4-6.3 7.5-9.6 17.8-9.6 30.9 0 12.6 3.5 22.9 10.4 30.7 7.3 8.2 17.3 12.4 30 12.4h.6v-14.4h-.6c-8.3-.1-14.9-2.9-19.5-8.5z"/><path id="path34" class="st1" d="M204.2 159.5c-7.1 0-12.8 4-16.9 11.9-4 7.7-6 18-6 30.6 0 13 1.9 23.5 5.7 31.2 3.9 7.9 9.6 11.9 17.2 11.9 7.7 0 13.8-4.3 18-12.5 4-7.7 6-18.1 6-30.8 0-12.6-2.1-22.8-6.2-30.5l-.4-.7-.4-.7-.3-.7-.6-.6-.3-.6-.6-.6-.4-.6-.4-.6-.4-.6-.6-.6-.4-.4-.6-.4-.4-.4-.6-.4-.4-.4-.6-.4-.6-.3-.6-.3-.6-.3-.6-.3-.6-.3-.6-.3-.6-.1-.7-.3-.6-.1-.7-.1-.6-.1h-.6l-.7-.1-.7-.1h-.7l-.9-.4zm0 13.2c3.8 0 6.5 2.7 8.2 8.1 1.6 4.9 2.3 12 2.3 21.1 0 8.9-.8 16.2-2.6 21.8l-.3.6-.1.4-.1.4-.1.4-.1.4-.3.4-.1.4-.3.3-.1.4-.3.3-.1.4-.1.3-.3.3-.3.3-.1.3-.3.1-.1.3-.3.3-.3.1-.3.3-.3.1-.3.1-.1.1-.3.1h-.3l-.3.1-.3.1h-.3l-.3.1h-1c-3.2 0-5.7-2.8-7.5-8.2-1.9-5.7-2.8-13-2.8-21.6 0-8.7.9-16 2.8-21.4 1.3-4.5 3.8-7.2 7.1-7.2z"/><path id="path36" class="st1" d="M259.4 223.2l-.4-.5-.4-.5-.8-1-.6-1.1-.6-1.1-.6-1.2-.5-1.2-.5-1.2-.5-1.2-.4-1.3-.4-1.3-.2-1.4-.2-1.4-.2-1.5-.1-1.5-.1-1.5v-1.5c0-8.6 2.1-15.5 6.2-20.5 4.5-5.5 11-8.3 19.6-8.3h.7v-14.3h-.7c-13.3 0-23.6 4.1-30.6 12.4-6.4 7.5-9.6 17.8-9.6 30.9 0 12.6 3.5 22.9 10.4 30.7 7.2 8.2 17.3 12.4 30 12.4h.6v-14.4h-.5c-8.4-.1-14.9-2.9-19.6-8.5z"/><path id="polygon38" class="st1" d="M134.1 41.3v82.4h15.2V55h18.8v68.7h15.1V41.3z"/><path id="path42" class="st1" d="M229.7 39.2c-8 0-14.5 4-19.1 12-4.5 7.8-6.7 18.1-6.7 30.8 0 13.1 2.1 23.8 6.5 31.5 4.4 7.9 10.9 11.9 19.4 11.9 8.6 0 15.4-4.1 20.2-12.5 4.5-7.7 6.9-18.2 6.9-30.9s-2.5-23.1-7-30.8l-.4-.7-.4-.7-.4-.7-.6-.6-.4-.7-.6-.6-.4-.6-.6-.6-.6-.6-.4-.4-.6-.6-.6-.4-.6-.4-.6-.4-.7-.4-.6-.3-.6-.4-.6-.3-.7-.3-.6-.3-.7-.3-.7-.3-.6-.1-.7-.3-.7-.1-.7-.1-.7-.1-.7-.1h-1.6l-.7-.1-1.4-.5zm.2 13.9c4.1 0 7 2.6 8.9 7.9 1.8 4.8 2.6 11.8 2.6 21 0 8.7-1 16-3.1 21.6-2 5.4-4.7 7.9-8.5 7.9h-1.3l-.3-.1-.3-.1h-.3l-.3-.1-.3-.1-.3-.1-.3-.1-.3-.1-.3-.3-.3-.1-.3-.3-.3-.1-.1-.3-.3-.3-.3-.3-.1-.3-.3-.3-.3-.4-.1-.3-.3-.3-.1-.4-.3-.4-.1-.3-.1-.6-.3-.4-.1-.4-.1-.4-.3-.4c-2.1-5.7-3.1-12.9-3.1-21.4 0-8.7 1-15.9 3.1-21.3 1.7-5.9 4.5-8.4 8.2-8.4z"/><path id="polygon44" class="st1" d="M339.4 41.3V55h12.7v68.7h15.1V55H380V41.3z"/><path id="path46" class="st1" d="M306.2 70h-8.3c-3.4 0-6-.8-7.6-2.3-1.2-1.1-1.7-2.5-1.7-4.4v-22h-15.2v23.5c0 5.4 2.2 10 6.4 13.7 4.2 3.6 9.3 5.4 15.2 5.4h11.1v39.8h15.2V41.3h-15.2l.1 28.7z"/><path id="path50" class="st1" d="M399.8 41.4l-2.8 82.4h15.1s1.4-38.5 1.5-40.3h18.9c.2 1.7 4.4 40.3 4.4 40.3h15.2l-7-60.3v-2.2l-.1-.7v-.7l-.1-.6v-.7l-.1-.6-.1-.7-.1-.6-.1-.6-.1-.6-.1-.6-.3-.6-.1-.6-.1-.6-.3-.6-.3-.4-.3-.6-.1-.4-.3-.6-.3-.4-.4-.4-.8-.7-.3-.3-.4-.6-.3-.3-.4-.4-.4-.4-.4-.3-.3-.4-.6-.4c-3.8-3-9-4.4-15.5-4.4l-22.6-.1zM414.3 55h5.4c3.9 0 6.6 1.3 8.2 3.7 1.4 2 2.3 5.8 2.8 11.1h-16.9v-1.9l.2-.9v-5.9l.1-.6V56.4l.1-.3v-.6l.1-.5z"/></svg>