<svg id="Слой_1" xmlns="http://www.w3.org/2000/svg" viewBox="-65 315 480 282"><style>.st0{fill:#fff}.st1{fill:#ffcc05}</style><path d="M-65 326.6c5.3-2.5 11.3-1.4 17-1.6h250c5 0 10-.2 15 .1 8.8.6 16.8 8 17.8 16.8.5 4.7.2 9.4.2 14v56.5c4-2 8.4-3.7 12.9-3.6 16.7 0 33.4.1 50.1 0 2.2 0 4.4-.1 6.5.5 1.9 1.1 3 3.1 4.2 4.8 11 16.9 22.5 33.6 33.5 50.5 1.5 2.2 3.1 4.8 6.1 5.1 8.2 1.5 16.5 2.7 24.8 4.1 8.8 1.6 18.2 2 25.8 7.1 8.6 4.9 14.3 13.9 16 23.6v43c-4 1.4-8.2 1.5-12.3 1.5.8 9.2.3 18.9-4.5 27.1-5.8 11-17 18-28.9 20.7h-10.7c-12.8-1.7-24.7-9.4-30.8-20.9-4.6-8.2-5.5-17.9-4.2-27.1h-7.8c-1.1 6.4-.3 12.9-1.4 19.3-4.8.8-9.6 1.1-14.4.6-2.8-.2-4.6-2.8-7.2-3.7-1.6-.3-3.2-.3-4.7-.3-18 .2-36.1 0-54.1.1-2.1-.2-4.9.3-6.2-1.7-1-3.3-.7-6.9-.8-10.3-11.6-.2-23.3.1-34.9 0-5.1.1-10.6-1.9-13.4-6.4-1.8-2.2-2.8-6.2-6.4-5.6-15-.1-30.1.1-45.1-.1-2.5 0-5.1-.1-7.6.3-3.2 3.9-5.3 9.2-10.6 10.7-9 2.5-18.5.1-27.6 1.4-2.7 1-4.7 3.3-6.9 5-3.3 3.1-7.6 5.6-8.9 10.1-2 6-5 11.9-9.6 16.4-6 6.4-14.2 10-22.5 12.2H22.6c-12.8-1.7-24.7-9.4-30.7-20.9-5.3-9.4-5.8-20.7-3.2-31-7.5-.3-15.1.1-22.7-.1-8.6-.2-16.9-5.5-20.4-13.4-1-2-1.6-4.3-3.1-5.9-2.5-.9-5-1.4-7.5-2.2V326.6z"/><path class="st0" d="M-57 333c90.3-.1 180.7 0 271 0 6.7-.5 13.1 5.2 12.9 12 0 45.2.1 90.4 0 135.6-33.4-9.9-66.6-20.5-99.9-30.7-45.6-14-91.1-28.1-136.7-42.2-15.7-5-31.6-9.5-47.2-14.7-.2-20-.1-40-.1-60z"/><path d="M117.4 361.4c3.5-.8 7.1-.3 10.6-.4 22.7 0 45.4.1 68.1 0 1.8.1 3.6-.1 5.3.7 2.5 1.5 2.2 6.1-.7 7-3.2.7-6.4.3-9.7.4h-64c-3.2-.1-6.5.3-9.6-.4-3.2-1-3.2-6.4 0-7.3zM169.4 377.4c4.2-.8 8.4-.3 12.6-.4 5.9.2 11.9-.3 17.9.2 4.2.2 4.2 7.4 0 7.6-9.6.4-19.2.2-28.8.1-4.4.6-5.6-6.3-1.7-7.5z"/><path class="st1" d="M-56.9 401.8c23.9 6.9 47.5 14.6 71.3 21.8 70.8 21.9 141.7 43.6 212.5 65.6.3 9.2.2 18.5.1 27.8-94.6.1-189.2.1-283.9 0-.1-38.4-.2-76.8 0-115.2zM239.1 420.1c3.4-3.3 8.5-3.2 12.9-3.1 16.3.2 32.5-.2 48.8.2 11.1 16.3 21.9 32.8 32.9 49.2 2.3 3.3 4.1 7.1 7.1 9.9 2.2 1.1 4.8 1.3 7.2 1.8 12 1.9 24 4 36 5.9 8.8 1.4 17.2 6.9 20.9 15.2 3 6.6 2.1 14.1 1.9 21.2-2.3-1.4-4.7-2.7-6-5.1-2.3-3.8-1.3-8.5-2.4-12.6-1.4-2-4.2-1.4-6.3-1.7-10.4.1-20.7 0-31.1.1-18.3.4-36 10.8-45.5 26.4-6.4 9.9-8.7 21.9-8.6 33.6-1.3-.1-2.5-.1-3.8 0-.4-8.7.2-17.4-.2-26.1-.6-9.6-9.3-17.7-18.8-17.9-16.3-.2-32.7.1-49-.1-.2-28.3 0-56.6-.1-85-.2-4.3.6-9 4.1-11.9z"/><path d="M253.4 425.4c7.8-1 15.8-.1 23.6-.4 6 .1 12-.3 18 .1 2.4-.1 3.7 2.2 5 3.9 7 10.7 14.1 21.2 21.2 31.8 1.4 2 2.8 5 .8 7.2-1.7 1.2-4 .9-5.9 1.1-19.4-.1-38.8-.1-58.1 0-2-.1-4.2 0-5.9-1.1-1.3-2.1-1-4.6-1.1-6.9.1-10 0-20.1 0-30.1.2-2-.1-5.1 2.4-5.6z"/><path class="st0" d="M259 433c11.3 0 22.5-.1 33.8.1 6.2 9.2 12.5 18.4 18.4 27.9-17.4.1-34.8.1-52.2 0v-28z"/><path d="M253.4 477.4c6.1-.8 12.4-.6 18.5-.2 4.2.1 4.2 7.5 0 7.6-5.9.4-11.8.5-17.7 0-3.8-.1-4.3-6.5-.8-7.4z"/><path class="st0" d="M317.8 541c6.3-18 24-31.3 43.1-31.9 9.9-.1 19.9-.1 29.8 0 .7 4.4 1.7 9 4.7 12.5 2.8 3.7 7 5.7 11.3 7.1.4 4.1.4 8.2.2 12.3H400c-4.2-8.1-10.3-15.5-18.6-19.6-13.7-7.2-31.6-5.5-43.5 4.4-5.1 3.8-8.4 9.3-11.5 14.6-2.7 1.2-5.8.4-8.6.6zM-48.5 525.1c16.9-.3 33.9-.1 50.8-.1-4 3.5-6.9 8.1-10.5 11.8-5.9.5-11.9 0-17.8.2-4.8-.1-9.9.6-14.3-1.8-4-2.1-6.7-5.9-8.2-10.1z"/><path class="st1" d="M21.4 525.5c15.6-3.2 32.3 7.4 36.4 22.7 4.9 15.5-4.5 33.5-19.8 38.8-14.9 5.9-33.2-1.8-39.8-16.3-6.2-12.2-2.9-28.2 7.2-37.3 4.5-4 10-6.8 16-7.9z"/><path class="st0" d="M51.7 525c58.4-.1 116.8-.1 175.2 0 .1 6.6.1 13.3 0 19.9-11.7.1-23.4.1-35 0-3.3.2-7-1.5-8-4.9-1.2-2.6-.9-7.3-4.9-7-20-.2-40 0-60-.1-2.3.1-4.9-.3-6.9 1.1-1.5 3.8-1.7 9.2-6.5 10.4-9.1 1.4-18.4-.2-27.5.7-4.3 1.9-7.2 5.9-11 8.7-.9-5.3-2-10.7-4.6-15.5-2.5-5.1-6.7-9.2-10.8-13.3zM235 525c16-.1 32-.1 48 0 6-.1 11.5 4.9 11.9 11 .3 7 .1 14 0 20.9-20 .1-39.9.1-59.9 0V525z"/><path class="st1" d="M357.4 525.5c15.6-3.2 32.3 7.4 36.4 22.7 4.9 15.5-4.5 33.5-19.8 38.8-14.9 5.9-33.2-1.8-39.8-16.3-6.2-12.2-2.9-28.2 7.2-37.3 4.5-4 10-6.8 16-7.9z"/><path d="M22.3 537.5C34 534.3 46.9 543.8 47 556c1 11.1-8.9 21.4-20 21-10 .3-19.1-8.1-19.9-18-1.2-9.7 5.7-19.4 15.2-21.5zM358.4 537.5c11.6-3.2 24.6 6.3 24.7 18.5 1 11.1-8.9 21.4-20 21-10 .3-19.1-8.1-19.9-18-1.3-9.7 5.6-19.4 15.2-21.5z"/><path class="st0" d="M23.4 545.6c6.7-2.4 14.5 2.6 15.5 9.6 1.3 7-4.8 14.1-11.9 13.8-6 0-11.5-5.1-11.9-11.1-.5-5.4 3.1-10.7 8.3-12.3zM359.4 545.6c6.7-2.5 14.5 2.6 15.5 9.6 1.3 7-4.9 14.1-11.9 13.8-6 0-11.5-5.1-11.9-11.1-.5-5.4 3.1-10.7 8.3-12.3z"/></svg>