<svg id="Слой_1" xmlns="http://www.w3.org/2000/svg" viewBox="0 0 273.9 56.7"><style>.st0{fill:#db2128}</style><path class="st0" d="M77.4.1H61l-4 11.2h16.4L57.7 55.8h13.4l15.7-44.5h16.4L107.1.1H77.4zM124 26.9h-7.3l5.5-15.6h7.3c4.3 0 6.6 3.5 5.1 7.8s-6.3 7.8-10.6 7.8M133.5.1V0H112.8L93.1 55.8h13.4l6.2-17.6h7.4c11.8 0 24.4-8.6 28.1-19.1s-2.9-19-14.7-19zM196.1 0L164 33.2 175.7.1h-13.3l-19.7 55.7h11.7L189 20l-12.6 35.8h13.3L209.4.1h-13.3V0zM34 45.4c-.8.3-1.5.5-2.2.7l2.2-.7zM2.2 28.3C-3.3 44 1 56.7 21.1 56.7c10.7 0 17.9-3.8 17.9-3.8l4.8-13.5s-6.9 5.3-12 6.7c-4.1 1-7.2.8-7.2.8-8 0-11.6-8.1-8.1-18.1 3.6-10 12.9-18.1 20.9-18.1 0 0 1.7-.1 4 .3 7.2 1.5 9.8 7.3 9.8 7.3h.1l5-14.4S49.9 0 41.1 0C21.5 0 7.8 12.7 2.2 28.3zM266.5 27.9l1.7-4.8h-15.7l8.2-23h-13.4l-8.1 23h-2.7c-1.7 0-3.1-1.3-3.2-3l-.7-11.3c-.4-5.2-4.3-8.7-9.9-8.7h-6.5L211.6 13h4.8c1.7 0 3 1 3.2 2.6l.3 2.9v.1l.2 1.3c.4 3.2 1 7 2.5 7l-3.6 3.2-24.5 25.6h15.7l21.5-22.5h3.9l-7.9 22.6H241l8-22.6h4.1s1 18.1 20.8 22.6c-12.7-10.6-7.4-27.9-7.4-27.9z"/><title>strizh Page1</title></svg>