<?xml version="1.0" encoding="UTF-8" standalone="no"?>
<svg width="596px" height="144px" viewBox="0 0 596 144" version="1.1" xmlns="http://www.w3.org/2000/svg" xmlns:xlink="http://www.w3.org/1999/xlink" xmlns:sketch="http://www.bohemiancoding.com/sketch/ns">
    <!-- Generator: Sketch 3.4.3 (16044) - http://www.bohemiancoding.com/sketch -->
    <title>LOGO Lifepay@1x</title>
    <desc>Created with Sketch.</desc>
    <defs></defs>
    <g id="UI" stroke="none" stroke-width="1" fill="none" fill-rule="evenodd" sketch:type="MSPage">
        <g id="LOGO-Lifepay" sketch:type="MSLayerGroup" transform="translate(-1.000000, -3.000000)">
            <path d="M95.0765358,20.7002744 C95.0765358,13.6104471 89.2889363,7.86353972 82.1489082,7.86353972 C75.00888,7.86353972 69.2212805,13.6104471 69.2212805,20.7002744 C69.2212805,27.7901017 75.00888,33.5370091 82.1489082,33.5370091 C89.2889363,33.5370091 95.0765358,27.7901017 95.0765358,20.7002744" id="Fill-1" fill="#333333" sketch:type="MSShapeGroup"></path>
            <path d="M1.59984364,13.7881865 L23.4773673,13.7881865 L23.4773673,92.7834769 L61.2658174,92.7834769 L61.2658174,112.5323 L1.59984364,112.5323 L1.59984364,13.7881865 Z" id="Fill-3" fill="#333333" sketch:type="MSShapeGroup"></path>
            <path d="M71.2232728,43.4260345 L93.0868745,43.4260345 L93.0868745,112.531115 L71.2232728,112.531115 L71.2232728,43.4260345 Z" id="Fill-5" fill="#333333" sketch:type="MSShapeGroup"></path>
            <path d="M116.954059,61.1853608 L103.031999,61.1853608 L103.031999,43.4272195 L117.588508,43.4272195 L117.588508,31.1987485 C117.588508,27.4089495 117.922637,23.8284879 118.592885,20.4632885 C119.259155,17.1000641 120.54794,14.1357658 122.45924,11.5763184 C124.368551,9.01687096 127.111197,7.00446593 130.693144,5.53317865 C134.273103,4.06386625 138.972793,3.32921005 144.798181,3.32921005 C146.993888,3.32921005 148.760001,3.4240044 150.862232,3.61359309 C152.960486,3.80515667 155.014984,4.13496201 157.019761,4.60893375 L156.017372,22.6672571 C154.774331,22.1932854 153.628745,21.8378066 152.578624,21.6008207 C151.528502,21.3658097 150.335183,21.2453419 148.998665,21.2453419 C145.563894,21.2453419 142.984335,21.9799981 141.267944,23.4493105 C139.547575,24.9205978 138.690374,27.9283435 138.690374,32.4784722 L138.690374,43.4272195 L154.74251,43.4272195 L154.74251,61.1853608 L138.831583,61.1853608 L138.831583,112.5323 L116.954059,112.5323 L116.954059,61.1853608 Z" id="Fill-7" fill="#333333" sketch:type="MSShapeGroup"></path>
            <path d="M210.430752,70.1590283 C210.524228,66.556843 209.330909,63.4760267 206.850793,60.9165793 C204.3667,58.3571319 201.170593,57.0774082 197.256505,57.0774082 C194.869866,57.0774082 192.767635,57.4565856 190.955778,58.2149403 C189.141932,58.97527 187.590617,59.9469121 186.301832,61.1298666 C185.013047,62.3167708 184.010658,63.689314 183.294667,65.2534207 C182.578675,66.8175275 182.170958,68.45273 182.077481,70.1590283 L210.430752,70.1590283 Z M228.61694,100.588014 C225.18018,104.948554 220.834509,108.315728 215.585892,110.683612 C210.333297,113.051496 204.893749,114.2384 199.261281,114.2384 C193.913221,114.2384 188.879402,113.385251 184.153857,111.678953 C179.428312,109.972655 175.323293,107.533675 171.8388,104.356089 C168.352318,101.180479 165.609672,97.3669812 163.604895,92.9096719 C161.600119,88.4563124 160.59773,83.4796091 160.59773,77.979562 C160.59773,72.4834647 161.600119,67.5067614 163.604895,63.0494521 C165.609672,58.5960926 168.352318,54.7806201 171.8388,51.6030345 C175.323293,48.4293987 179.428312,45.9864694 184.153857,44.2801711 C188.879402,42.5738728 193.913221,41.7207237 199.261281,41.7207237 C204.223502,41.7207237 208.734249,42.5738728 212.793524,44.2801711 C216.85081,45.9864694 220.287571,48.4293987 223.103804,51.6030345 C225.91805,54.7806201 228.09188,58.5960926 229.619329,63.0494521 C231.144789,67.5067614 231.910502,72.4834647 231.910502,77.979562 L231.910502,84.6625636 L182.077481,84.6625636 C182.936671,88.7387206 184.798249,91.985427 187.662216,94.4026829 C190.526183,96.8199388 194.058408,98.0285667 198.258893,98.0285667 C201.78913,98.0285667 204.774417,97.2465133 207.208789,95.6824066 C209.643161,94.1182998 211.767269,92.1058948 213.581115,89.6392669 L228.61694,100.588014 Z" id="Fill-8" fill="#333333" sketch:type="MSShapeGroup"></path>
            <path d="M262.013179,77.979562 C262.013179,83.1952261 263.516762,87.4135746 266.525916,90.6346075 C269.531092,93.8595903 273.755443,95.4691193 279.198969,95.4691193 C284.638516,95.4691193 288.862867,93.8595903 291.872021,90.6346075 C294.879186,87.4135746 296.382769,83.1952261 296.382769,77.979562 C296.382769,72.7678477 294.879186,68.5494992 291.872021,65.3245165 C288.862867,62.1034835 284.638516,60.4900047 279.198969,60.4900047 C273.755443,60.4900047 269.531092,62.1034835 266.525916,65.3245165 C263.516762,68.5494992 262.013179,72.7678477 262.013179,77.979562 L262.013179,77.979562 Z M242.251809,43.427022 L262.140467,43.427022 L262.140467,52.5272794 L262.301565,52.5272794 C263.158766,51.2969278 264.280486,50.0389278 265.664737,48.7592041 C267.046999,47.4794804 268.673891,46.3202245 270.53348,45.2755118 C272.397048,44.2347488 274.421713,43.3796248 276.61941,42.7160644 C278.815117,42.0544788 281.152035,41.7207237 283.636128,41.7207237 C288.791268,41.7207237 293.467092,42.5975714 297.671554,44.3512669 C301.872039,46.1069372 305.475863,48.5696154 308.483028,51.7452261 C311.488205,54.9228116 313.803244,58.690887 315.428148,63.0494521 C317.049073,67.4099922 317.86252,72.1990816 317.86252,77.4107959 C317.86252,82.2453077 317.120673,86.8665322 315.640956,91.2744694 C314.16124,95.6824066 312.062987,99.5926735 309.34023,103.00527 C306.62145,106.417867 303.302033,109.143204 299.387945,111.181283 C295.473857,113.219361 291.034709,114.2384 286.072489,114.2384 C281.583619,114.2384 277.407,113.549166 273.540645,112.176623 C269.676279,110.80408 266.50006,108.45792 264.017956,105.138143 L264.129332,105.138143 L264.129332,144.130218 L242.251809,144.130218 L242.251809,43.427022 Z" id="Fill-9" fill="#333333" sketch:type="MSShapeGroup"></path>
            <path d="M365.610812,82.2455052 C363.985908,82.2455052 361.959254,82.3166009 359.522893,82.4587925 C357.090511,82.600984 354.749616,83.0058349 352.508164,83.6674204 C350.262734,84.3309808 348.353423,85.3282964 346.778241,86.6534424 C345.20306,87.9825381 344.417458,89.8310279 344.417458,92.1989118 C344.417458,94.7583592 345.513323,96.656221 347.71102,97.8865727 C349.906727,99.1188992 352.195912,99.7350625 354.58454,99.7350625 C356.682793,99.7350625 358.711436,99.4506794 360.670469,98.8819133 C362.625524,98.3131473 364.367771,97.5093702 365.897208,96.4646575 C367.422668,95.4219196 368.637865,94.0947987 369.546777,92.4832948 C370.455689,90.8717909 370.90915,88.9778788 370.90915,86.7956339 L370.90915,82.2455052 L365.610812,82.2455052 Z M370.781863,103.858617 L370.622753,103.858617 C368.234126,107.555596 365.059896,110.209838 361.098075,111.821342 C357.136255,113.432846 352.959636,114.238598 348.57021,114.238598 C345.324381,114.238598 342.197884,113.788325 339.190718,112.887778 C336.183553,111.989207 333.534384,110.636413 331.243211,108.83532 C328.950049,107.036202 327.136203,104.80656 325.799685,102.152318 C324.463167,99.5000515 323.796897,96.4172603 323.796897,92.9098694 C323.796897,88.9285068 324.534766,85.5652823 326.016471,82.8142713 C327.494199,80.0652352 329.500964,77.7901708 332.028813,75.9890782 C334.55865,74.1899604 337.446483,72.7897689 340.694301,71.7944283 C343.938141,70.7990876 347.303302,70.0664063 350.789784,69.5904597 C354.274277,69.1184628 357.756781,68.8321049 361.243262,68.7373105 C364.727755,68.6444911 367.949718,68.595119 370.90915,68.595119 C370.90915,64.8033451 369.546777,61.7955994 366.826009,59.5659573 C364.107229,57.340265 360.885267,56.2244565 357.16211,56.2244565 C353.629884,56.2244565 350.405933,56.9591127 347.496222,58.4284251 C344.582534,59.8997124 341.983086,61.9121174 339.691913,64.4715648 L328.236046,52.81186 C332.245599,49.1148804 336.921423,46.3421457 342.269483,44.4936559 C347.613565,42.6451661 353.150567,41.7209212 358.878501,41.7209212 C365.181217,41.7209212 370.358234,42.5029746 374.417509,44.0670813 C378.474796,45.6311881 381.720625,47.9319259 384.153007,50.9633702 C386.589368,53.9987642 388.281893,57.7174675 389.238537,62.1254047 C390.191204,66.5333419 390.670521,71.630513 390.670521,77.4109934 L390.670521,112.5323 L370.781863,112.5323 L370.781863,103.858617 Z" id="Fill-10" fill="#333333" sketch:type="MSShapeGroup"></path>
            <path d="M442.650324,123.76543 C441.21834,127.462409 439.83409,130.732814 438.497572,133.576645 C437.159065,136.420475 435.46654,138.814033 433.414031,140.757317 C431.359532,142.698626 428.762074,144.169913 425.61171,145.165254 C422.461347,146.160595 418.308595,146.658265 413.151466,146.658265 C407.614464,146.658265 402.268393,145.805116 397.113252,144.098818 L399.977219,126.60926 C403.223048,128.031176 406.564343,128.742133 410.001103,128.742133 C412.385753,128.742133 414.344786,128.479474 415.872235,127.96008 C417.399684,127.438711 418.664602,126.680356 419.666991,125.685015 C420.669379,124.689675 421.504702,123.481047 422.172961,122.059132 C422.84122,120.637216 423.555223,118.978315 424.320936,117.082428 L425.896118,113.101066 L395.394872,43.4272195 L418.593003,43.4272195 L436.492795,89.0706983 L436.781181,89.0706983 L452.101414,43.4272195 L474.155947,43.4272195 L442.650324,123.76543 Z" id="Fill-11" fill="#333333" sketch:type="MSShapeGroup"></path>
            <path d="M596.93619,144.131206 L474.024284,144.131206 L474.024284,124.477177 L596.93619,124.477177 L596.93619,144.131206 Z" id="Fill-12" fill="#2679FF" sketch:type="MSShapeGroup"></path>
        </g>
    </g>
</svg>